<?xml version="1.0" standalone="no"?>
<!DOCTYPE svg PUBLIC "-//W3C//DTD SVG 20010904//EN"
 "http://www.w3.org/TR/2001/REC-SVG-20010904/DTD/svg10.dtd">
<svg version="1.0" xmlns="http://www.w3.org/2000/svg"
 width="700.000000pt" height="700.000000pt" viewBox="0 0 700.000000 700.000000"
 preserveAspectRatio="xMidYMid meet">
<metadata>
Created by potrace 1.11, written by Peter Selinger 2001-2013
</metadata>
<g transform="translate(0.000000,700.000000) scale(0.100000,-0.100000)"
fill="#000000" stroke="none">
<path d="M3395 6282 c-11 -2 -24 -8 -30 -12 -5 -5 -26 -11 -45 -14 -19 -3 -36
-10 -38 -16 -2 -5 -8 -8 -13 -4 -9 5 -39 -19 -39 -32 0 -4 7 -15 16 -25 10
-11 14 -25 10 -36 -7 -17 -8 -17 -19 2 -6 11 -18 28 -28 38 -17 18 -18 18 -29
-5 -18 -33 -19 -33 -34 -12 -14 18 -16 18 -50 1 -20 -9 -36 -21 -36 -27 0 -6
-8 -10 -17 -8 -12 2 -18 -3 -18 -17 0 -15 7 -20 31 -21 43 -2 104 -23 104 -36
0 -6 -8 -7 -17 -3 -29 12 -106 19 -101 9 34 -70 38 -86 28 -104 -15 -27 -17
-25 -12 9 5 38 -24 83 -52 79 -16 -2 -20 -9 -18 -28 5 -34 59 -114 65 -98 3 7
6 -6 6 -29 1 -50 -11 -55 -36 -15 -21 33 -94 124 -108 134 -5 4 -18 8 -27 8
-21 0 -21 -49 -1 -97 17 -42 17 -41 -10 -36 -22 4 -57 68 -57 103 0 30 -19 -7
-25 -50 -6 -42 -23 -86 -30 -78 -2 1 1 23 5 48 17 87 7 113 -37 95 -10 -4 -40
-8 -66 -9 -66 -4 -72 -12 -54 -77 8 -30 18 -65 22 -79 3 -14 -3 -5 -14 19 -12
24 -21 49 -21 56 0 7 -9 23 -19 36 l-19 24 -25 -24 c-14 -13 -28 -40 -32 -60
-3 -21 -14 -49 -24 -64 -17 -26 -17 -26 -34 -7 -24 28 -37 25 -44 -12 -6 -29
-7 -30 -14 -10 -10 27 -30 28 -53 3 -10 -11 -42 -31 -71 -45 -35 -16 -60 -36
-69 -55 -14 -26 -14 -31 3 -50 13 -15 30 -21 57 -21 38 0 38 0 16 -16 -12 -8
-31 -32 -41 -52 -10 -20 -36 -57 -58 -81 -35 -40 -41 -43 -62 -32 -29 16 -110
18 -119 4 -8 -13 -102 -20 -119 -10 -18 11 -82 -13 -88 -33 -4 -11 -11 -20
-16 -20 -14 0 -11 -53 6 -94 10 -24 22 -36 35 -36 18 0 19 -3 8 -20 -19 -30 1
-75 32 -74 14 1 30 -6 36 -14 8 -11 20 -13 46 -8 46 8 57 -14 28 -58 -11 -17
-20 -25 -20 -19 0 15 -41 43 -67 48 -10 1 -26 -2 -35 -6 -12 -7 -29 -3 -53 10
-32 17 -74 18 -76 2 -8 -65 -1 -78 32 -61 20 10 22 10 12 -1 -22 -22 -15 -49
17 -67 29 -17 42 -39 17 -29 -7 3 -27 -1 -45 -8 l-31 -14 15 -44 c8 -24 30
-59 49 -77 l35 -34 0 26 c0 30 15 45 23 24 4 -9 14 -12 26 -9 15 4 21 1 21
-11 0 -13 11 -19 40 -18 3 0 15 3 28 7 16 5 22 2 22 -10 0 -13 4 -14 21 -4 17
9 24 7 40 -10 11 -12 23 -21 27 -21 25 0 152 -162 165 -209 3 -15 0 -24 -10
-28 -10 -4 -13 -13 -8 -32 4 -14 8 -36 9 -47 2 -12 10 -32 19 -45 10 -13 17
-31 17 -40 0 -9 7 -30 15 -45 13 -26 13 -29 0 -32 -13 -3 -20 -22 -16 -45 1
-5 -8 -11 -19 -14 -29 -8 -25 -21 5 -15 22 4 25 1 26 -24 0 -16 2 -38 4 -48 2
-10 -3 -26 -11 -34 -9 -9 -13 -24 -10 -36 3 -12 6 -26 6 -33 0 -7 7 -10 15 -7
24 9 18 -21 -10 -54 -21 -25 -23 -31 -10 -42 8 -6 19 -9 25 -5 17 11 23 -22
10 -60 -9 -28 -19 -37 -42 -42 -21 -4 -26 -9 -18 -17 7 -7 4 -15 -11 -27 -13
-9 -17 -19 -12 -22 6 -4 24 3 39 15 l29 22 -27 -30 c-15 -16 -34 -46 -42 -66
-9 -20 -20 -39 -26 -43 -16 -10 -3 -58 21 -78 29 -23 82 -19 87 6 2 11 14 30
25 44 12 13 25 34 28 46 4 15 6 7 7 -20 0 -24 -4 -43 -9 -43 -5 0 -9 -7 -9
-16 0 -12 6 -15 23 -9 12 4 31 7 42 6 11 0 29 -1 40 -1 16 -1 17 -3 5 -10 -8
-5 -25 -10 -37 -10 -26 0 -63 -36 -63 -62 0 -12 8 -18 24 -18 14 0 27 -4 31
-9 3 -5 19 -12 35 -16 17 -4 35 -15 40 -26 12 -21 1 -26 -18 -7 -16 16 -28 2
-13 -16 7 -9 11 -30 8 -49 -5 -36 11 -67 34 -67 11 0 11 -2 -1 -10 -18 -11
-49 8 -104 65 -58 60 -166 94 -166 52 0 -36 26 -76 57 -88 18 -7 33 -15 33
-18 1 -3 16 -24 34 -45 25 -29 42 -40 67 -42 62 -4 101 -16 90 -27 -5 -5 -7
-15 -4 -22 2 -8 -4 -18 -15 -24 -11 -6 -26 -28 -33 -48 -6 -21 -16 -44 -21
-50 -11 -14 14 -29 30 -19 6 3 12 -1 16 -9 4 -11 -2 -15 -27 -15 -30 0 -34 -4
-44 -41 -10 -37 -9 -40 8 -36 15 4 16 2 6 -14 -17 -28 -53 -34 -82 -15 -14 9
-25 21 -25 26 0 6 -14 10 -30 10 -24 0 -35 -7 -48 -30 -9 -16 -20 -30 -24 -30
-5 0 -8 -4 -8 -10 0 -5 9 -10 21 -10 11 0 27 -7 35 -15 20 -20 90 -20 98 0 7
18 26 20 26 3 0 -7 -11 -26 -23 -42 l-24 -29 -57 33 c-47 26 -60 30 -67 19 -5
-8 -9 -17 -9 -20 0 -3 -8 -14 -18 -25 -10 -10 -25 -34 -34 -51 -15 -31 -15
-33 0 -33 9 0 28 9 42 20 28 22 86 27 93 8 2 -8 21 -13 50 -12 26 0 47 -3 47
-8 0 -4 -5 -8 -12 -8 -6 0 -1 -11 12 -25 13 -14 19 -25 13 -25 -5 0 -18 9 -28
20 -10 11 -24 20 -32 20 -8 0 -32 9 -55 21 l-41 21 -54 -28 c-59 -30 -85 -69
-73 -114 5 -19 18 -29 53 -41 55 -18 68 -27 32 -24 -16 2 -37 -6 -55 -22 -36
-30 -47 -49 -55 -92 -5 -28 -3 -31 19 -31 13 0 64 29 116 65 51 36 95 64 97
61 5 -5 -22 -24 -144 -103 -78 -50 -80 -52 -66 -61 9 -6 9 -17 -1 -47 -15 -43
-12 -59 10 -51 7 3 18 -4 24 -14 14 -26 28 -25 73 6 21 14 40 24 43 22 2 -3
-7 -11 -21 -18 -14 -7 -25 -17 -25 -20 0 -4 -14 -13 -31 -20 -28 -12 -30 -16
-24 -44 10 -40 10 -120 0 -171 -5 -33 -3 -44 14 -64 12 -13 21 -27 21 -31 0
-11 90 8 108 22 13 11 15 10 9 -4 -3 -9 -1 -18 6 -21 6 -2 -4 -4 -23 -5 -53
-3 -95 -17 -96 -33 0 -8 -4 -21 -8 -29 -11 -25 66 -240 85 -240 4 0 12 7 19
15 7 8 17 15 23 15 6 0 0 -11 -13 -25 -12 -13 -24 -34 -25 -47 -2 -13 -5 -28
-6 -33 -5 -14 36 -65 51 -65 8 0 9 -10 5 -29 -7 -32 9 -51 28 -32 6 6 20 11
31 11 21 -1 21 -1 1 -15 -41 -30 -45 -35 -36 -58 4 -12 6 -28 3 -36 -2 -7 1
-16 7 -20 6 -4 12 -19 13 -34 1 -15 7 -27 13 -27 20 0 55 -40 49 -55 -4 -8 -1
-16 5 -16 6 -1 16 -3 21 -4 6 -1 16 -3 23 -4 6 -1 0 -8 -15 -17 -17 -8 -25
-20 -22 -28 8 -22 32 -27 42 -9 7 12 16 14 38 8 16 -5 36 -7 44 -6 32 5 129
57 129 69 1 6 5 12 11 12 10 0 5 -18 -17 -60 -23 -44 -16 -68 27 -95 48 -30
50 -31 85 -3 18 14 26 17 23 7 -2 -8 -19 -23 -36 -34 -30 -19 -45 -65 -21 -65
6 0 24 -9 39 -20 l28 -20 19 23 c29 37 49 44 24 8 -22 -30 -22 -69 -1 -56 6 3
17 -1 25 -9 9 -8 23 -12 31 -9 11 4 12 9 5 16 -6 6 -11 16 -11 21 0 6 5 5 12
-2 18 -18 56 -15 66 6 7 14 8 49 3 85 -1 4 -19 14 -41 23 -22 9 -40 21 -40 26
0 6 8 7 18 3 59 -24 74 -25 93 -2 19 22 25 39 33 92 2 17 12 59 21 94 13 49
14 65 5 71 -9 5 -9 9 -1 14 6 4 11 4 11 0 0 -3 6 -1 13 5 14 11 15 34 3 62 -4
8 -5 40 -4 69 3 53 2 54 -29 62 -52 14 -49 28 6 22 46 -4 51 -3 71 26 22 30
22 32 4 45 -11 8 -22 15 -25 15 -4 0 -10 8 -13 17 -6 16 -5 16 12 0 46 -42 82
-23 97 50 4 19 13 33 21 33 8 0 13 3 12 8 -1 4 2 16 8 27 6 11 9 42 6 68 -4
42 -7 48 -26 45 -12 -1 -32 5 -46 15 -20 14 -21 17 -7 17 10 0 27 -5 38 -10
15 -9 21 -7 25 5 3 8 12 15 20 15 7 0 18 9 24 20 14 27 -27 113 -51 107 -11
-3 -19 3 -23 16 -8 31 0 35 48 30 40 -4 46 -1 66 27 l23 32 -29 24 c-16 13
-26 24 -21 25 4 1 10 2 15 3 4 1 30 5 57 9 72 11 105 26 105 48 0 11 -4 19 -9
19 -5 0 -11 7 -15 15 -4 13 -2 14 14 5 17 -9 20 -8 20 10 0 12 5 31 11 42 9
18 8 24 -7 35 -14 10 -14 13 -3 14 8 1 19 0 24 -1 6 -1 15 -3 20 -4 16 -2 16
-14 1 -45 -9 -16 -18 -43 -21 -61 -3 -19 -9 -38 -12 -43 -7 -12 16 -27 34 -20
8 3 21 19 29 35 12 23 18 27 29 18 18 -15 35 -5 35 21 0 10 5 19 10 19 6 0 10
-8 10 -17 0 -12 8 -7 30 17 29 34 31 44 14 84 -7 19 -6 19 15 4 13 -9 31 -14
40 -10 20 8 48 41 57 67 4 11 11 23 16 26 8 5 67 206 68 231 0 5 15 25 33 45
41 46 49 67 34 82 -6 6 -12 24 -13 40 l-2 29 49 -30 c36 -23 55 -29 74 -24 18
5 25 12 21 21 -3 10 1 15 14 15 10 0 23 7 28 15 4 9 19 17 33 19 22 2 76 31
89 47 3 3 19 13 35 22 75 38 165 122 165 153 0 12 7 27 15 34 9 7 14 20 13 29
-2 9 10 30 25 46 15 17 25 37 22 46 -4 11 2 18 16 22 18 5 20 9 10 21 -10 12
-7 17 18 32 16 10 27 22 24 27 -3 6 1 15 9 21 8 6 20 21 27 34 14 26 5 28 -44
8 -24 -10 -60 -13 -123 -10 -79 4 -90 2 -106 -15 -10 -11 -34 -25 -53 -32 -26
-8 -35 -18 -40 -40 -6 -32 -18 -38 -27 -14 -3 9 8 31 30 54 19 22 31 42 25 45
-5 3 -29 -3 -53 -14 -25 -11 -55 -17 -68 -15 -12 2 -32 -1 -44 -7 -16 -8 -14
-3 9 21 36 39 41 81 11 98 -23 13 -23 13 52 18 70 4 127 73 101 122 -11 20
-18 22 -48 17 -20 -4 -40 -7 -45 -8 -5 0 -11 6 -14 14 -2 8 -2 12 2 9 4 -4 23
-3 43 1 30 7 48 3 104 -22 57 -27 70 -38 89 -74 26 -52 63 -84 99 -84 39 0 50
15 40 58 -4 20 -6 38 -4 41 3 2 8 -10 11 -27 8 -40 23 -52 52 -41 27 10 28 24
4 69 -10 19 -29 63 -41 97 -21 57 -25 61 -43 52 -11 -6 -17 -17 -14 -25 3 -8
1 -14 -4 -14 -8 0 -13 14 -12 40 0 3 3 15 7 28 5 16 2 24 -12 29 -10 4 -20 10
-23 13 -3 4 -39 19 -80 35 -41 15 -81 32 -88 38 -9 7 -18 4 -32 -8 -11 -10
-20 -13 -20 -8 0 6 6 16 14 22 16 13 15 23 -5 68 l-14 33 -48 -41 c-26 -23
-50 -39 -52 -37 -5 4 91 108 100 108 2 0 13 -17 24 -37 26 -53 46 -67 123 -90
l67 -20 -5 47 c-8 81 -27 124 -61 135 -16 6 -37 16 -46 24 -10 7 -17 10 -17 6
0 -4 -15 2 -32 12 -40 24 -93 14 -109 -20 -6 -12 -29 -35 -51 -50 -35 -25 -39
-26 -33 -8 4 14 0 21 -15 26 -33 10 -18 16 17 6 32 -9 63 2 63 23 0 7 9 21 20
31 19 18 19 18 -13 47 -22 21 -24 25 -7 14 33 -22 47 -20 56 6 6 19 7 19 16 5
13 -23 81 -57 115 -57 21 0 33 8 45 30 9 17 29 35 43 40 24 9 25 13 19 47 -4
21 -9 42 -12 47 -2 5 -33 6 -68 2 -63 -6 -70 -3 -65 28 1 4 -2 13 -7 20 -5 6
-5 25 -1 41 4 18 8 23 9 13 1 -10 4 -22 5 -28 1 -5 3 -14 4 -19 3 -23 89 -13
92 11 1 4 2 13 3 20 0 6 10 12 20 14 27 4 37 24 24 48 -12 22 -93 106 -103
106 -3 0 -4 -20 -3 -45 2 -58 -7 -67 -16 -16 -7 46 -24 61 -41 38 -14 -19 -31
-22 -40 -7 -3 6 1 7 9 4 11 -4 22 8 38 40 14 29 27 45 35 41 7 -3 20 -8 28
-11 35 -14 0 91 -48 143 -11 12 -25 33 -31 45 -12 24 -60 33 -81 17 -13 -10
-29 0 -43 28 -7 12 -22 23 -34 25 -34 5 -30 33 4 31 22 -1 28 4 33 28 8 37 34
51 85 45 47 -6 52 0 40 45 -16 56 -26 66 -49 52 -41 -26 -122 15 -107 53 4 12
13 14 32 10 42 -11 24 15 -21 31 -36 12 -41 12 -52 -3 -7 -9 -10 -21 -7 -25 3
-5 2 -14 -2 -20 -10 -17 -24 10 -24 51 -1 40 -22 140 -32 156 -4 6 0 24 9 40
9 16 15 44 14 62 -1 17 3 32 9 32 17 0 11 28 -9 42 -11 8 -23 29 -28 48 -6 24
-16 36 -30 38 -22 3 -33 21 -39 61 -4 36 12 60 35 54 30 -8 81 33 81 64 0 16
-7 27 -20 30 -24 6 -26 29 -4 41 9 5 23 23 30 40 11 28 11 33 -4 41 -16 9 -16
11 1 23 13 10 21 34 26 77 6 54 5 63 -10 72 -34 18 -87 20 -123 5 -35 -15 -36
-16 -36 -69 l0 -55 -32 2 c-18 0 -38 8 -45 16 -14 18 -19 8 -26 -55 -6 -50
-13 -80 -32 -130 -15 -40 -16 -39 -9 40 4 44 7 87 6 96 -1 29 -21 94 -34 112
-12 16 -15 16 -36 1 -17 -12 -23 -23 -19 -40 2 -13 -1 -31 -7 -40 -10 -13 -14
-11 -33 14 -20 27 -26 29 -65 25 -24 -3 -55 -14 -70 -24 -34 -24 -38 -24 -38
5 0 20 12 29 81 57 92 39 129 70 129 109 0 35 -19 50 -67 55 -20 2 -39 8 -41
13 -1 5 -9 18 -17 28 -11 14 -17 16 -23 7 -11 -17 -55 -32 -91 -31 -22 1 -37
-6 -47 -21 -9 -12 -20 -19 -25 -15 -18 11 11 32 83 60 65 24 69 28 53 40 -11
8 -27 14 -38 14 -10 0 -27 5 -38 11 -23 12 -66 17 -94 11z m725 -2296 c0 -2
-7 -9 -15 -16 -12 -10 -15 -10 -15 4 0 9 7 16 15 16 8 0 15 -2 15 -4z m-1792
-277 c-3 -8 -7 -3 -11 10 -4 17 -3 21 5 13 5 -5 8 -16 6 -23z m-38 -1671 c0
-11 8 -22 20 -25 11 -3 20 -10 21 -17 0 -6 2 -21 5 -34 2 -14 0 -21 -6 -17 -5
3 -10 13 -10 20 0 25 -36 37 -55 19 -8 -9 -22 -13 -30 -10 -10 3 -23 -7 -38
-29 -20 -32 -37 -45 -37 -29 0 12 63 104 71 104 5 0 6 -7 3 -15 -8 -19 5 -19
30 0 12 9 17 22 14 39 -3 14 -1 23 3 20 5 -3 9 -14 9 -26z"/>
<path d="M3840 6040 c0 -11 42 -52 48 -46 5 6 -31 55 -40 56 -5 0 -8 -4 -8
-10z"/>
<path d="M4062 5621 c-29 -18 -18 -71 15 -71 16 0 32 37 25 62 -5 19 -19 23
-40 9z"/>
<path d="M4168 5259 c-2 -7 5 -31 15 -53 26 -53 33 -32 8 23 -10 24 -21 37
-23 30z"/>
<path d="M1693 5222 c-17 -10 0 -35 21 -30 14 2 15 6 4 20 -7 10 -18 14 -25
10z"/>
<path d="M4270 5146 c0 -14 5 -26 10 -26 6 0 10 9 10 19 0 11 -4 23 -10 26 -6
4 -10 -5 -10 -19z"/>
<path d="M4325 4878 c8 -27 65 -117 65 -103 0 17 -53 125 -62 125 -5 0 -6 -10
-3 -22z"/>
<path d="M4470 4629 c0 -5 -5 -7 -11 -3 -9 5 -10 -4 -4 -32 4 -21 8 -40 10
-42 2 -2 22 2 44 9 29 9 40 17 36 27 -3 7 -5 16 -5 18 0 3 -5 2 -11 -1 -6 -4
-17 2 -25 14 -16 22 -34 28 -34 10z"/>
<path d="M2187 3883 c-3 -5 5 -16 18 -25 22 -16 23 -16 45 7 l23 25 -41 0
c-22 0 -43 -3 -45 -7z"/>
<path d="M4295 3513 c-13 -16 -35 -28 -60 -32 -38 -6 -38 -7 -40 -54 -2 -26 1
-47 6 -47 5 0 27 10 50 22 34 17 45 19 60 10 11 -7 19 -8 19 -3 0 5 11 23 24
39 l25 29 -19 31 c-23 38 -38 39 -65 5z"/>
<path d="M2270 3509 c-9 -16 -9 -24 -1 -32 12 -12 31 6 31 30 0 22 -19 24 -30
2z"/>
<path d="M2380 3421 c0 -5 7 -12 16 -15 22 -9 24 -8 18 9 -7 16 -34 21 -34 6z"/>
<path d="M2168 3309 c-21 -12 -23 -40 -5 -58 10 -10 9 -11 -4 -6 -10 4 -19 -3
-27 -20 -16 -34 -1 -63 39 -77 16 -5 29 -16 29 -24 0 -8 -6 -11 -15 -8 -19 8
-20 -19 -1 -35 16 -14 109 2 143 24 29 19 30 56 2 81 -12 10 -29 35 -39 55
-28 54 -88 88 -122 68z"/>
<path d="M2411 3177 c-14 -14 -15 -77 -1 -77 5 0 12 11 16 25 3 14 10 25 15
25 14 0 10 27 -5 33 -7 3 -19 0 -25 -6z"/>
<path d="M3584 2163 c2 -10 7 -18 12 -18 5 0 10 8 12 18 2 10 -3 17 -11 17 -9
0 -14 -8 -13 -17z"/>
<path d="M2608 1062 l-26 -17 24 -12 c20 -9 26 -8 34 7 22 41 10 50 -32 22z"/>
</g>
</svg>
